<svg width="44" height="44" viewBox="0 0 44 44" fill="none" xmlns="http://www.w3.org/2000/svg">
<rect width="44" height="44" rx="22" fill="#F2F2F2"/>
<path d="M22 24C21.1667 24 20.4583 23.7083 19.875 23.125C19.2917 22.5417 19 21.8333 19 21V15C19 14.1667 19.2917 13.4583 19.875 12.875C20.4583 12.2917 21.1667 12 22 12C22.8333 12 23.5417 12.2917 24.125 12.875C24.7083 13.4583 25 14.1667 25 15V21C25 21.8333 24.7083 22.5417 24.125 23.125C23.5417 23.7083 22.8333 24 22 24ZM21 31V27.925C19.2667 27.6917 17.8333 26.9167 16.7 25.6C15.5667 24.2833 15 22.75 15 21H17C17 22.3833 17.4877 23.5627 18.463 24.538C19.4383 25.5133 20.6173 26.0007 22 26C23.3827 25.9993 24.562 25.5117 25.538 24.537C26.514 23.5623 27.0013 22.3833 27 21H29C29 22.75 28.4333 24.2833 27.3 25.6C26.1667 26.9167 24.7333 27.6917 23 27.925V31H21Z" fill="#0B0B0B"/>
</svg>
