<svg width="44" height="44" viewBox="0 0 44 44" fill="none" xmlns="http://www.w3.org/2000/svg">
<rect width="44" height="44" rx="22" fill="#F2F2F2"/>
<path d="M22 30C24.1217 30 26.1566 29.1571 27.6569 27.6569C29.1571 26.1566 30 24.1217 30 22C30 19.8783 29.1571 17.8434 27.6569 16.3431C26.1566 14.8429 24.1217 14 22 14C19.8783 14 17.8434 14.8429 16.3431 16.3431C14.8429 17.8434 14 19.8783 14 22C14 24.1217 14.8429 26.1566 16.3431 27.6569C17.8434 29.1571 19.8783 30 22 30ZM22 32C16.477 32 12 27.523 12 22C12 16.477 16.477 12 22 12C27.523 12 32 16.477 32 22C32 27.523 27.523 32 22 32ZM22 24C21.4696 24 20.9609 23.7893 20.5858 23.4142C20.2107 23.0391 20 22.5304 20 22C20 21.4696 20.2107 20.9609 20.5858 20.5858C20.9609 20.2107 21.4696 20 22 20C22.5304 20 23.0391 20.2107 23.4142 20.5858C23.7893 20.9609 24 21.4696 24 22C24 22.5304 23.7893 23.0391 23.4142 23.4142C23.0391 23.7893 22.5304 24 22 24Z" fill="#0B0B0B"/>
</svg>
